<svg xmlns="http://www.w3.org/2000/svg" id="Capa_1" data-name="Capa 1" viewBox="0 0 512 512"><defs><style>      .cls-1 {        fill: #fff;      }    </style></defs><rect width="512" height="512" rx="96.95" ry="96.95"></rect><g><path class="cls-1" d="m167.77,474.49h-39.65l75.56-193.44-70.73-181.65h43.4l57.87,150.04,58.41-150.04h39.12l-70.2,181.65,75.02,193.44h-43.94l-62.16-161.83-62.69,161.83Z"></path><g><path class="cls-1" d="m361.07,87.35c-7.64,18.82-15.35,37.78-22.93,56.46-.52-.21-1.05-.42-1.57-.63v-65.75c8.19,3.32,16.36,6.63,24.5,9.92Z"></path><path class="cls-1" d="m336.57,77.43v65.75c-26.99-10.95-54.26-22.01-81.3-32.99,7.58-18.69,15.25-37.62,22.88-56.42,19.45,7.88,38.98,15.79,58.42,23.66Z"></path><path class="cls-1" d="m301.13,140.72c-.06.24-.1.48-.19.72-12.71,31.37-25.43,62.76-38.22,94.1-.32.82-1.47,1.67-2.36,1.79-5.3.79-9.82-.88-13.56-4.77-1.43-1.49-1.84-2.82-.98-4.94,12.47-30.48,24.82-60.98,37.21-91.49.34-.85.74-1.67,1.04-2.34,5.74,2.34,11.3,4.58,17.05,6.92Z"></path><path class="cls-1" d="m270.06,44.97c-.16.58-.38,1.12-.61,1.67-8.44,20.83-16.89,41.66-25.35,62.49-.35.87-.71,1.75-1.22,2.5-1.27,1.84-3.14,2.88-5.26,2.29-1.73-.46-3.27-1.7-5.29-2.8.46-2.42.53-4.47,1.23-6.25,6.97-17.4,14.05-34.75,21.1-52.12,1.62-4.01,3.16-8.06,4.97-11.99,1.33-2.92,4.49-3.96,7.29-2.74,2.72,1.19,3.99,3.99,3.12,6.95Z"></path><path class="cls-1" d="m383.62,90.73c-.58,1.86-1.38,3.65-2.12,5.45-8.05,19.89-16.12,39.77-24.19,59.67-1.49,3.63-4.52,5.08-7.68,3.83-3.13-1.25-4.35-4.46-2.9-8.08,8.6-21.23,17.18-42.46,25.85-63.64.63-1.55,1.92-2.84,2.48-3.64,3.05-1.09,5.07-.84,6.83.68,1.78,1.52,2.4,3.52,1.73,5.74Z"></path></g></g></svg>