<svg xmlns="http://www.w3.org/2000/svg" id="Capa_1" data-name="Capa 1" viewBox="0 0 983.64 400.03"><defs><style>      .cls-1 {        fill: #fff;      }    </style></defs><rect class="cls-1" width="539.34" height="400.03"></rect><g><rect x="539.34" width="444.3" height="400.03"></rect><path d="m343.94,382.14h-34.68l66.07-169.16-61.86-158.86h37.96l50.61,131.21,51.08-131.21h34.21l-61.39,158.86,65.6,169.16h-38.42l-54.36-141.52-54.83,141.52Z"></path><g><path class="cls-1" d="m787.73,55.88c-6.81-8.77-13.59-17.57-20.37-26.39-2.22-2.89-4.14-2.94-6.28,0-6.66,9.11-13.31,18.22-19.98,27.34-1.91,2.61-1.82,3.49.43,5.88,2.43,2.57,4.47,5.36,6.12,8.4,1.35,2.46,2.42,5.08,3.2,7.86.15.55.11,1.51-.24,1.79-1.49,1.23-2.43,2.65-2.96,4.24-.5,1.43-.66,3-.64,4.69.23,16.01.43,32.01.64,48.02.17,13.71.35,27.43.52,41.14.01.8,0,1.59,0,2.47h-.52v6.09c.18-.01.38-.01.56-.01.04.6.11,1.09.12,1.6.1,3.34-.07,6.71.3,10.01.8,7.02,5.54,11.05,12.57,11.02,3.35-.02,6.69-.08,10.03-.12,4.77-.05,8.35-1.48,10.63-4.15v-122.88c-.63-.97-1.46-1.85-2.52-2.63-.41-.3-.64-1.3-.49-1.85.71-2.79,1.72-5.46,3.01-7.95,1.52-2.95,3.43-5.68,5.72-8.2,2.36-2.61,2.33-3.53.14-6.36Zm-34.63,33.47c-.04-3.34.88-4.31,4.17-4.35,2.52-.03,5.05-.05,7.75-.09,0,.71,0,1.36.01,2.03.11,8.07.19,16.15.36,24.22.01.96.14,2.26.75,2.78.79.67,2.31,1.22,3.15.9.92-.36,1.93-1.72,2.04-2.74.26-2.56.03-5.17,0-7.76-.09-6.42-.17-12.86-.26-19.51.97-.01,1.96-.06,2.95-.04,2.13.06,3.26,1.15,3.33,3.29.09,2.96.09,5.93.13,8.89.31,24.28.63,48.56.94,72.84.01.68-.02,1.36-.03,2.22-8.17.1-16.1.19-24.12.29-.04-.76-.1-1.38-.11-1.99-.35-26.99-.7-53.99-1.04-80.98Zm25.55,109.06c-.04,2.94-2.48,5.2-5.45,5.33-4.29.19-8.58.25-12.87.18-3.1-.05-5.67-2.44-5.76-5.48-.23-6.61-.23-13.23-.32-20.03,8.12-.11,16.11-.21,24.29-.31.05,6.86.23,13.59.12,20.31Zm3.22-138.94c-.09.19-.22.4-.4.63-4.18,5.09-7.07,10.87-8.64,17.28-.26,1.06-.73,1.41-1.8,1.41-4.09,0-8.19.04-12.28.15-1.13.03-1.7-.29-2-1.43-1.69-6.32-4.8-11.88-9.08-17.07-.3-.36-.6-.71-.91-1.07.3-.41.61-.83.91-1.25,1.43-1.96,2.86-3.91,4.3-5.88,2.95-4.02,5.93-8.09,9.02-12.34.05,4.32.11,8.37.16,12.34.03,1.88.05,3.75.09,5.61.01.69-.02,1.39.02,2.08.12,1.97,1.29,3.22,3,3.24,1.79.01,3.05-1.3,3.04-3.35-.01-2.53-.04-5.06-.09-7.58-.03-2.58-.08-5.16-.11-7.73-.01-1.62-.02-3.24-.04-5.43,2.99,3.85,5.63,7.25,8.27,10.65.65.83,1.29,1.68,1.93,2.51,1.39,1.82,2.77,3.64,4.18,5.44.19.24.35.47.43.68.16.37.18.71,0,1.12Z"></path><path class="cls-1" d="m778.38,172.04c-8.17.1-16.1.2-24.13.29-.04-.77-.1-1.38-.11-2-.35-26.99-.7-53.98-1.04-80.98-.04-3.34.89-4.31,4.18-4.36,2.52-.04,5.04-.06,7.74-.08,0,.71,0,1.37.02,2.03.11,8.07.19,16.15.35,24.22.02.96.15,2.26.76,2.79.78.67,2.31,1.23,3.15.9.93-.36,1.93-1.73,2.03-2.75.26-2.56.04-5.16,0-7.75-.08-6.43-.17-12.86-.26-19.51.97-.02,1.96-.07,2.94-.04,2.14.06,3.27,1.14,3.33,3.29.09,2.96.09,5.93.13,8.89.32,24.28.63,48.56.94,72.84,0,.68-.01,1.37-.03,2.22Z"></path><path class="cls-1" d="m754.24,178.41c8.12-.1,16.11-.2,24.29-.31.06,6.86.23,13.59.12,20.32-.05,2.93-2.49,5.19-5.45,5.33-4.28.19-8.58.25-12.86.18-3.1-.05-5.66-2.43-5.77-5.47-.22-6.61-.23-13.23-.33-20.04Z"></path></g><path class="cls-1" d="m599.12,380.26h-36.55V52.24h36.55v328.02Z"></path><path class="cls-1" d="m781.47,60.1c-4.18,5.09-7.07,10.87-8.64,17.28-.26,1.06-.73,1.41-1.8,1.41-4.09,0-8.19.04-12.28.15-1.13.03-1.7-.29-2-1.43-1.69-6.32-4.8-11.88-9.08-17.07v242.51c0,29.52-11.71,47.33-37.96,47.33s-38.42-17.81-38.42-47.33V52.24h-36.08v248.83c0,49.67,22.96,82.94,73.11,82.94s73.56-33.28,73.56-82.94V59.47c-.09.19-.22.4-.4.63Zm-4.21-7.86c1.39,1.82,2.77,3.64,4.18,5.44.19.24.35.47.43.68v-6.12h-4.61Zm-10.04,0h-6.07c.03,1.88.05,3.75.09,5.61.01.69-.02,1.39.02,2.08.12,1.97,1.29,3.22,3,3.24,1.79.01,3.05-1.3,3.04-3.35-.01-2.53-.04-5.06-.09-7.58Zm-19.55,0v5.88c1.43-1.96,2.86-3.91,4.3-5.88h-4.3Z"></path><path class="cls-1" d="m959.94,130.97v8.9h-34.68v-10.78c0-29.52-11.25-46.86-37.49-46.86s-37.49,17.34-37.49,46.39c0,73.57,110.12,80.6,110.12,172.91,0,49.67-23.9,82.01-74.04,82.01s-73.57-32.33-73.57-82.01v-18.74h34.21v20.62c0,29.52,12.18,46.86,38.42,46.86s38.43-17.34,38.43-46.86c0-73.1-109.65-80.13-109.65-172.45,0-50.61,23.43-82.01,72.63-82.01s73.1,32.33,73.1,82.01Z"></path><path d="m0,52.48h36.55v294.75h93.72v33.27H0V52.48Z"></path><path d="m274.59,230.54h-80.13v116.68h98.41v33.27h-134.96V52.48h134.96v33.27h-98.41v112h80.13v32.8Z"></path><g><path d="m512.98,43.58c-6.68,16.45-13.42,33.04-20.05,49.37-.46-.18-.92-.37-1.38-.55v-57.5c7.16,2.9,14.31,5.8,21.43,8.68Z"></path><path d="m491.56,34.9v57.5c-23.6-9.58-47.45-19.25-71.09-28.85,6.63-16.35,13.33-32.9,20.01-49.34,17.01,6.89,34.09,13.81,51.09,20.69Z"></path><path d="m460.56,90.26c-.06.21-.08.42-.17.63-11.11,27.44-22.24,54.89-33.42,82.29-.28.71-1.29,1.46-2.06,1.57-4.64.69-8.59-.77-11.85-4.18-1.25-1.3-1.61-2.47-.85-4.32,10.9-26.65,21.7-53.33,32.54-80.01.29-.74.64-1.46.91-2.05,5.02,2.05,9.88,4.01,14.91,6.05Z"></path><path d="m433.39,6.52c-.14.5-.34.98-.53,1.46-7.38,18.22-14.77,36.43-22.17,54.65-.31.76-.62,1.53-1.07,2.19-1.11,1.61-2.75,2.52-4.6,2-1.51-.41-2.86-1.49-4.62-2.45.41-2.12.46-3.91,1.08-5.46,6.1-15.22,12.29-30.39,18.45-45.58,1.42-3.5,2.76-7.05,4.34-10.48,1.16-2.55,3.92-3.46,6.38-2.4,2.38,1.04,3.49,3.49,2.73,6.08Z"></path><path d="m532.7,46.54c-.51,1.62-1.2,3.2-1.85,4.77-7.04,17.4-14.09,34.78-21.16,52.18-1.3,3.17-3.95,4.44-6.72,3.35-2.74-1.09-3.8-3.9-2.53-7.06,7.52-18.57,15.02-37.13,22.61-55.66.55-1.35,1.68-2.48,2.17-3.18,2.66-.95,4.43-.74,5.97.6,1.56,1.33,2.1,3.08,1.52,5.02Z"></path></g></g></svg>